PathFileType	4	(X/Y/Z)	C:\Users\Public\Documents\Vicon Data\AADs Machine\Frameless Spring Test\Dec182020\10lbsSpring1.trc
DataRate	CameraRate	NumFrames	NumMarkers	Units	OrigDataRate	OrigDataStartFrame	OrigNumFrames
100.0	100.0	23	9	mm	100.0	131	1041	
Frame#	Time	Heel			MP5			Toe			MMAL			LMAL			Shank			SpringTop			LateralKnee			MedialKnee			
		X1	Y1	Z1	X2	Y2	Z2	X3	Y3	Z3	X4	Y4	Z4	X5	Y5	Z5	X6	Y6	Z6	X7	Y7	Z7	X8	Y8	Z8	X9	Y9	Z9	
131	1.3	-192.38557	46.391243	-770.51721	-239.30487	37.764965	-598.92645	-172.34908	38.966125	-529.42975	-120.6131	111.75009	-709.82489	-242.42599	117.76134	-703.48615	-169.23055	274.0451	-642.26855	-188.87224	189.8477	-757.70288	-208.98782	471.80167	-708.95172	-133.76239	469.98941	-705.53015
132	1.31	-192.36369	46.433109	-770.51117	-239.3485	37.794651	-598.88806	-172.39986	39.000584	-529.39539	-120.83134	111.6954	-709.7901	-242.44063	117.83469	-703.43854	-169.26057	274.07428	-642.25726	-188.84845	189.88931	-757.68842	-209.04071	471.81293	-708.92767	-133.83122	470.02106	-705.50507
133	1.32	-192.35951	46.422665	-770.52106	-239.34897	37.777504	-598.90784	-172.37653	38.986259	-529.41315	-120.83379	111.67931	-709.80463	-242.46304	117.84119	-703.41071	-169.23694	274.07047	-642.2735	-188.85498	189.88216	-757.7077	-209.0437	471.82492	-708.93439	-133.82657	470.00992	-705.51447
134	1.33	-192.38293	46.415314	-770.50592	-239.32225	37.775013	-598.901	-172.35754	38.983807	-529.41052	-120.85279	111.6682	-709.81885	-242.43414	117.78413	-703.45532	-169.24789	274.07755	-642.24683	-188.91649	189.87456	-757.68713	-208.9995	471.80057	-708.92078	-133.81145	470.03076	-705.47614
135	1.34	-192.38327	46.431938	-770.49548	-239.34061	37.778191	-598.88538	-172.37813	38.981319	-529.401	-120.80707	111.6969	-709.7937	-242.42981	117.78938	-703.45911	-169.26744	274.05609	-642.2229	-188.87511	189.88869	-757.6803	-209.03452	471.80353	-708.86871	-133.72404	470.11188	-705.42474
136	1.35	-192.37836	46.406818	-770.52771	-239.33295	37.802879	-598.90875	-172.36879	38.984371	-529.43665	-120.80634	111.6851	-709.83435	-242.44403	117.8075	-703.45978	-169.20146	274.09045	-642.25415	-188.86906	189.86801	-757.71741	-209.03665	471.86673	-708.90802	-133.80276	469.98969	-705.50256
137	1.36	-192.39436	46.41357	-770.50293	-239.33514	37.805771	-598.88232	-172.34309	39.008835	-529.39996	-120.82535	111.67371	-709.76904	-242.45421	117.80607	-703.45892	-169.20561	274.08157	-642.25793	-188.88824	189.9035	-757.68842	-208.95076	471.80334	-708.96967	-133.73421	470.02832	-705.5119
138	1.37	-192.36856	46.397133	-770.50177	-239.32979	37.789585	-598.89752	-172.34427	38.983978	-529.42438	-120.77357	111.6572	-709.77911	-242.41946	117.79214	-703.45319	-169.20018	274.07147	-642.28992	-188.85345	189.85143	-757.70917	-208.90802	471.78839	-709.03015	-133.71938	469.98987	-705.58734
139	1.38	-192.38116	46.38155	-770.51654	-239.33363	37.808594	-598.90363	-172.37363	38.979202	-529.40631	-120.77795	111.68852	-709.82904	-242.41733	117.80544	-703.47699	-169.19804	274.08063	-642.31982	-188.84412	189.82387	-757.75049	-208.97948	471.8277	-709.10779	-133.70349	470.00616	-705.68884
140	1.39	-192.37712	46.425007	-770.4928	-239.3329	37.802181	-598.88727	-172.35858	38.999897	-529.38312	-120.82834	111.66592	-709.77844	-242.42931	117.84651	-703.39258	-169.17395	274.11578	-642.36481	-188.87701	189.85803	-757.72839	-208.978	471.79645	-709.22229	-133.59357	470.06177	-705.78137
141	1.4	-192.34389	46.409714	-770.4967	-239.30261	37.798546	-598.8877	-172.31335	38.99683	-529.41962	-120.77939	111.66666	-709.80206	-242.38339	117.78934	-703.46698	-169.13686	274.12003	-642.41956	-188.87624	189.79536	-757.75763	-208.94223	471.7532	-709.3291	-133.57751	470.0639	-705.9057
142	1.41	-192.39014	46.42392	-770.50378	-239.36531	37.797577	-598.88599	-172.38574	38.982162	-529.39514	-120.77413	111.69354	-709.82166	-242.43109	117.79958	-703.44238	-169.21124	274.12451	-642.53363	-188.86771	189.79938	-757.81	-209.05211	471.77203	-709.43036	-133.67525	470.03003	-706.0379
143	1.42	-192.37416	46.426025	-770.48267	-239.32753	37.820389	-598.88165	-172.3674	39.001347	-529.39313	-120.85964	111.65241	-709.74286	-242.48277	117.867	-703.40063	-169.20744	274.1553	-642.59875	-188.9243	189.77072	-757.82544	-209.08836	471.82559	-709.552	-133.6846	470.06458	-706.18048
144	1.43	-192.37822	46.399384	-770.48633	-239.3102	37.787567	-598.88269	-172.3149	38.97422	-529.41418	-120.59733	111.75497	-709.79352	-242.40703	117.77858	-703.45862	-169.17854	274.16895	-642.65991	-188.92662	189.72162	-757.875	-209.03329	471.73956	-709.76044	-133.71115	470.03729	-706.32001
145	1.44	-192.44366	46.438305	-770.51447	-239.35371	37.79834	-598.88501	-172.38181	38.996559	-529.40027	-120.84478	111.69827	-709.82831	-242.41249	117.78203	-703.46997	-169.17583	274.18823	-642.74866	-188.99033	189.70824	-757.91119	-209.01794	471.74637	-709.88525	-133.76208	470.04706	-706.47595
146	1.45	-192.42772	46.448563	-770.4527	-239.34175	37.815388	-598.87982	-172.36391	39.005268	-529.38702	-120.81918	111.71486	-709.81366	-242.47653	117.82288	-703.38849	-169.19623	274.2175	-642.80212	-188.97275	189.70912	-757.90607	-209.05273	471.79797	-709.97809	-133.7747	470.02042	-706.62903
147	1.46	-192.39568	46.410721	-770.49225	-239.31468	37.801472	-598.88251	-172.33612	38.993317	-529.40173	-120.58774	111.83265	-709.83264	-242.43959	117.78709	-703.47357	-169.13971	274.23087	-642.87421	-188.94878	189.68326	-757.9458	-208.98322	471.72763	-710.18646	-133.77373	470.01392	-706.78552
148	1.47	-192.4561	46.415203	-770.4986	-239.3336	37.784325	-598.87372	-172.34428	38.973923	-529.41638	-120.80559	111.67699	-709.87097	-242.42694	117.77578	-703.47552	-169.11409	274.25076	-642.93866	-188.99603	189.61931	-757.98566	-209.01869	471.71289	-710.31433	-133.80482	469.98615	-706.91058
149	1.48	-192.43176	46.418949	-770.48102	-239.34662	37.809982	-598.86047	-172.36017	38.991531	-529.39526	-120.82822	111.70934	-709.84326	-242.47977	117.84947	-703.37988	-169.08743	274.328	-642.96198	-189.01762	189.62956	-757.9751	-209.1656	471.83032	-710.39557	-133.85176	469.98489	-707.04187
150	1.49	-192.40283	46.448948	-770.49286	-239.33183	37.817711	-598.87567	-172.32507	39.005222	-529.40833	-120.81197	111.71969	-709.8692	-242.46832	117.83984	-703.39221	-169.09865	274.33856	-642.99884	-188.97365	189.64313	-758.02509	-209.05385	471.73804	-710.59143	-133.841	469.9686	-707.15723
151	1.5	-192.41231	46.394428	-770.51868	-239.33032	37.787823	-598.86206	-172.30905	38.986229	-529.41724	-120.61932	111.7635	-709.89905	-242.43242	117.74921	-703.48376	-169.09695	274.33612	-643.03839	-188.99002	189.58322	-758.06525	-209.01402	471.71652	-710.64191	-133.6566	470.17447	-707.28931
152	1.51	-192.45659	46.441746	-770.50916	-239.34265	37.793964	-598.86493	-172.35516	38.969437	-529.40277	-120.8125	111.689	-709.91034	-242.48204	117.783	-703.38263	-169.12102	274.34326	-643.06836	-189.04141	189.57315	-758.07294	-209.05556	471.70758	-710.67975	-133.95474	469.88333	-707.47803
153	1.52	-192.44286	46.447517	-770.48871	-239.32281	37.814301	-598.86078	-172.3233	39.005665	-529.39264	-120.61141	111.81587	-709.88568	-242.47098	117.82753	-703.35016	-169.10579	274.36984	-643.11792	-189.01138	189.61514	-758.09058	-209.03329	471.73645	-710.77527	-133.74928	470.10544	-707.46228
